<?xml version="1.0" encoding="utf-8"?>
<!-- Generator: Adobe Illustrator 21.1.0, SVG Export Plug-In . SVG Version: 6.00 Build 0)  -->
<svg version="1.1" id="Layer_1" xmlns="http://www.w3.org/2000/svg" xmlns:xlink="http://www.w3.org/1999/xlink" x="0px" y="0px"
	 viewBox="0 0 736.7 252.2" style="enable-background:new 0 0 736.7 252.2;" xml:space="preserve">
<g>
	<g>
		<path d="M0,192.9c18-7.6,32.5-18.2,43.4-31.7l8.2,1.2c-0.5,0.7-1,1.3-1.4,1.8c-0.4,0.5-0.7,1-1,1.3c10.1,11.5,24.3,20.6,42.6,27.4
			l-3.9,6.2c-17.7-7.5-31.9-17.2-42.6-29.3C34,181.5,20.2,191.3,3.9,199.1L0,192.9z M42.2,224.9H13.3v-5.5h28.9v-16H15.6v-5.5h60.6
			v5.5H48.8v16h30.1v5.5H48.8v18h39.5v5.4H2.7v-5.4h39.5V224.9z"/>
		<path d="M138.8,186.2c2.7-5,4.6-9.7,5.9-14h-41.4v-5.5h89.8v5.5h-41.4c-0.7,2.3-1.6,4.7-2.5,7c-0.9,2.3-1.9,4.7-3,7h41.5v65.7
			h-6.3v-3.6H115v3.6h-6.3v-65.7H138.8z M115,191.3v52h17.2v-52H115z M138.4,191.3v14.1H158v-14.1H138.4z M138.4,210.4v13.7H158
			v-13.7H138.4z M138.4,229.2v14.1H158v-14.1H138.4z M164.2,191.3v52h17.2v-52H164.2z"/>
		<path d="M205,246.4c7.5-10.5,11.3-25.7,11.3-45.7v-34.8h74.2v23.5h-15.2l5.1,1.9c-1.3,1.9-2.6,3.8-3.9,5.6c-1.2,1.8-2.4,3.5-3.5,5
			h18.7v5.4h-15.6v14.1h19.1v5.5h-19.1v24.6h-6.6v-24.6h-19.6c-1.3,10.4-8.1,18.7-20.3,25l-4.7-5.1c10.9-4.9,17.1-11.6,18.4-19.9
			h-18.4v-5.5h18.8v-14.1H228v-5.4h19.2c-1.8-3.1-4.4-6.1-7.8-9l4.3-3.5H223v10.9c0,22.7-4.3,39.9-12.9,51.6L205,246.4z M223,171.4
			v12.5h60.9v-12.5H223z M265.2,201.9c2.9-3.3,5.5-7.5,7.8-12.5h-28.2c1.7,1.7,3.3,3.2,4.6,4.7c1.3,1.5,2.5,2.9,3.6,4.2l-5,3.6
			H265.2z M250.3,207.3v14.1h19.2v-14.1H250.3z"/>
		<path d="M338.6,244c9.9-8.8,17.2-18.4,21.9-28.9c-3.6-6-7-11.7-10.3-17c-3.3-5.4-6.5-10.5-9.7-15.4l5.1-3.5
			c2.8,4.3,5.7,8.9,8.7,13.7c3,4.8,6.1,9.8,9.3,15.2c3.4-8.9,5.6-20.7,6.6-35.2H339v-5.8h37.5v5.8c-1.3,16.5-4.1,30.6-8.6,42.2
			c4.7,6.8,8.6,12.8,11.7,18l-5.5,4.7c-1.5-3-3.1-5.8-4.8-8.5c-1.6-2.7-3.3-5.2-5-7.5c-5.3,10.1-12.4,19.2-21.1,27.3L338.6,244z
			 M369.4,246.4c11.8-5.5,21.4-12.4,28.9-20.7c-7.9-13.1-12.5-30.7-14-52.8h-3.5v-5.8h41.8v5.8c-1.9,21.2-7.3,38.8-16.1,52.8
			c7.2,9.4,14.5,16,21.9,19.9l-3.9,6.3c-8.3-5-15.7-12-22.2-21.1c-7.1,7.8-16.6,14.8-28.6,21.1L369.4,246.4z M402.3,219.8
			c7.2-11.4,11.9-27,14-46.9h-25.8C392.4,194.1,396.4,209.8,402.3,219.8z"/>
		<path d="M449.6,251.4c-1.1,0-2.3,0-3.4-0.1c-1.1-0.1-2.4-0.2-3.7-0.3l-1.8-5.9c2.1,0.2,3.7,0.3,4.9,0.4c1.2,0.1,2.4,0.2,3.5,0.2
			c0.8,0,1.4-0.2,1.8-0.6c0.4-0.4,0.7-1.1,0.7-2.1v-31.6l-9.7,6.1l-1.6-6.3l11.3-6.6v-18h-10.5v-5.8h10.5v-19.2h6.3v19.2h9.7v5.8
			h-9.7v14.5l10.5-7.1v6.7l-10.5,6.7v35.7c0,2.9-0.6,5-1.8,6.3C455,250.7,452.8,251.4,449.6,251.4z M462.2,246.8
			c7.8-3.1,13.9-6.9,18.3-11.4c-3.5-2.7-7.7-5.3-12.5-7.8l3.5-4.3c4.4,2.3,8.6,5,12.5,7.9c1.8-2.3,3.4-5.8,4.7-10.6h-21.1v-5.1H495
			v5.1c-1.3,4.8-3.2,9.5-5.9,14.1c1.1,0.9,2.3,1.9,3.4,2.8c1.1,0.9,2.2,1.9,3.3,3l-4.3,4.3c-1.1-1.1-2.1-2.1-3.2-3
			c-1-0.9-2.1-1.9-3.2-2.8c-5.7,5.5-12,9.8-19.1,12.9L462.2,246.8z M468,204.6l9.4-0.4V171h-10.1v-5.1h63.2v5.1h-10.1v31.2l10.5-0.7
			v5l-10.5,0.8v5.5h-6.3v-5.5l-45.3,2.4L468,204.6z M483.7,171v7h30.4v-7H483.7z M483.7,183.1v7h30.4v-7H483.7z M483.7,195.2v8.6
			l30.4-1.6v-7H483.7z M491.9,246.8c7.5-2.3,13.2-4.9,17.1-7.8c-3.9-4.1-6.6-10.3-8.2-18.4h-3.5v-5.1h30.5v5.1
			c-1.8,7.1-5.2,13.2-10.2,18.4c4.6,3.5,9.4,5.9,14.5,7l-3.5,5.9c-5.2-2.1-10.3-5.1-15.3-9c-4.7,3.7-10.7,6.7-17.9,9L491.9,246.8z
			 M513.3,235.1c4-4.6,6.7-9.4,8.2-14.5h-15.2C507.9,227.2,510.2,232,513.3,235.1z"/>
		<path d="M542,246.8c1.5-2.5,2.9-5.2,4.2-8.2c1.2-3,2.3-6.4,3.1-10.2c0.8-3.8,1.5-7.9,1.9-12.5c0.4-4.6,0.6-9.6,0.6-15.2v-17.6H544
			v-5.5h32v5.5h-18v14.8h15.7c0,3.9,0,7.8-0.1,11.8c-0.1,4-0.1,7.8-0.2,11.6c-0.1,3.8-0.2,7.5-0.4,11c-0.2,3.5-0.4,6.7-0.5,9.5
			c-0.3,3.2-1.1,5.5-2.5,6.9c-1.4,1.4-3.8,2-7.2,2c-1.2,0-2.4,0-3.6-0.1c-1.2-0.1-2.5-0.2-3.8-0.3l-1.7-5.9c1.8,0.3,3.5,0.5,5.1,0.6
			c1.6,0.1,2.8,0.2,3.6,0.2c1.5,0,2.4-0.3,2.9-0.8c0.5-0.5,0.8-1.6,0.9-3.1c0.2-2.7,0.4-5.6,0.5-8.8c0.1-3.2,0.2-6.5,0.3-9.8
			c0.1-3.3,0.2-6.7,0.2-10c0.1-3.3,0.1-6.4,0.1-9.3H558c-0.2,10-1.2,19-3,26.9c-1.8,7.9-4.5,15.2-8.3,21.9L542,246.8z M560.8,175.7
			c-2.3-4.2-4.9-8.1-7.8-11.7l5.8-3.2c1.3,1.5,2.7,3.2,4,5.1c1.3,1.9,2.7,4,4.2,6.2L560.8,175.7z M576.2,246.2
			c3.6-1.2,7.1-2.8,10.5-4.8c3.4-2,6.4-4.2,9.2-6.8l4.7,4.7c-5.3,4.9-12,9.1-20.3,12.5L576.2,246.2z M577.2,180.4
			c5.5-5.6,9.9-12,13.3-19.2l6.2,2.8c-0.4,0.9-0.9,1.9-1.5,2.8c-0.6,0.9-1.3,1.9-2,3H633v5.5h-42.5c-1.5,1.9-2.9,3.6-4.2,5.3
			c-1.3,1.7-2.7,3.3-4,4.8L577.2,180.4z M587.3,194H578v-5.4h9.3V180h6.3v8.6h23V180h6.3v8.6h9.4v5.4h-9.4v33.2h10.5v5.5h-56.2v-5.5
			h10.1V194z M593.6,194v7.5h23V194H593.6z M593.6,206.9v7.5h23v-7.5H593.6z M593.6,219.8v7.4h23v-7.4H593.6z M629.5,251.9
			c-3-2.5-6.1-4.8-9.3-6.9c-3.2-2-6.7-3.9-10.2-5.5l4-5c3.6,1.7,7.1,3.6,10.4,5.6c3.3,2,6.5,4.2,9.5,6.7L629.5,251.9z"/>
		<path d="M645.7,246.8c4.4-8.3,6.6-20.8,6.6-37.5h-6.2v-5.9h6.2v-31.2h9c0.7-2.3,1.3-4.3,1.8-6.2c0.5-1.9,1-3.6,1.3-5.1l6.7,2
			c-0.7,1.5-1.3,3-1.8,4.5c-0.6,1.5-1.1,3.2-1.7,4.9h14v69.9c0,3.2-0.6,5.6-1.8,7.1c-1.2,1.5-3.3,2.3-6.3,2.3c-1.5,0-3,0-4.7-0.1
			c-1.7-0.1-3.1-0.2-4.2-0.3l-1.6-6.4c1.8,0.3,3.6,0.5,5.5,0.6c1.9,0.1,3.3,0.2,4.2,0.2c1.1,0,1.9-0.2,2.3-0.8
			c0.4-0.5,0.7-1.3,0.7-2.3v-33.1h-17.5c0,18.9-2.5,33.1-7.4,42.6L645.7,246.8z M658.2,178v25.4h17.5V178H658.2z M666,199.5
			c-1.1-5.9-2.4-11.3-3.9-16l5.1-2c1.7,5.3,3.2,10.7,4.3,16.1L666,199.5z M666,234.3c-0.5-6.5-1.6-12.6-3.5-18.4l5.5-1.9
			c1.8,6.7,3.1,12.8,3.9,18.3L666,234.3z M682,247.2c16.1-12.5,24.2-27.3,24.2-44.2v-23.8h5.9v15.2c0,8.1-0.5,15-1.6,20.7h5.5v26
			c0,2.1,1,3.2,3.1,3.2h7.5c1,0,1.7-0.3,2.2-1c0.4-0.7,0.8-1.7,1-3c0.3-1.5,0.5-3.4,0.7-5.6c0.2-2.2,0.3-4.6,0.4-7.2l5.9,2.4
			c-0.1,2.1-0.3,4.2-0.5,6.3c-0.2,2.1-0.5,3.9-0.8,5.6c-0.5,3-1.4,5.1-2.9,6.3c-1.5,1.2-3.4,1.8-5.7,1.8h-8.1
			c-5.7,0-8.6-2.7-8.6-8.2v-24.6c-3.6,13.8-11.7,25.4-24.2,34.8L682,247.2z M728.9,221H723v-48.8h-27.7V221h-5.9v-54.3h39.5V221z"/>
	</g>
	<g>
		<g id="XMLID_34_">
			<path id="XMLID_53_" d="M525.4,33.7c-2.5,0-4.9,0.4-7.3,1.1l2.4-15.2h21.9l1.3-5.4h-27.8l-3.8,24.2l0,0l-1.1,6.8l1.4-1.2
				c3.6-3.1,8.2-4.8,13-4.8c11,0,19.9,8.9,19.9,19.9c0,11-8.9,19.9-19.9,19.9c-5.5,0-10.5-2.2-14.3-6.1l-0.5-0.5l-3.6,4l0.5,0.5
				c4.8,4.9,11.2,7.6,18,7.6c13.9,0,25.3-11.3,25.3-25.3C550.7,45,539.3,33.7,525.4,33.7z"/>
			<path id="XMLID_49_" d="M204.2,48.6c0,5.1-0.8,9.8-2.3,14.1c-1.5,4.3-3.7,8.1-6.5,11.2c-2.8,3.1-6.2,5.6-10.1,7.4
				c-4,1.8-8.4,2.7-13.2,2.7c-4.9,0-9.3-0.9-13.3-2.7c-4-1.8-7.4-4.2-10.2-7.4c-2.8-3.1-5-6.9-6.5-11.2c-1.5-4.3-2.3-9-2.3-14.1
				s0.8-9.8,2.3-14.1c1.5-4.3,3.7-8.1,6.5-11.2c2.8-3.2,6.2-5.6,10.2-7.4c4-1.8,8.4-2.7,13.3-2.7c4.9,0,9.3,0.9,13.3,2.7
				c4,1.8,7.4,4.3,10.2,7.4c2.8,3.2,5,6.9,6.5,11.2C203.5,38.9,204.2,43.5,204.2,48.6z M197.5,48.6c0-4.3-0.6-8.3-1.8-11.9
				c-1.2-3.6-2.9-6.7-5.1-9.4c-2.2-2.6-4.9-4.7-8-6.1c-3.1-1.4-6.6-2.2-10.5-2.2c-3.9,0-7.4,0.7-10.6,2.2c-3.2,1.4-5.8,3.5-8.1,6.1
				c-2.2,2.6-3.9,5.8-5.2,9.4c-1.2,3.6-1.8,7.6-1.8,11.9c0,4.3,0.6,8.3,1.8,11.9c1.2,3.6,2.9,6.7,5.2,9.3c2.2,2.6,4.9,4.6,8,6.1
				c3.1,1.5,6.6,2.2,10.5,2.2c3.9,0,7.4-0.7,10.5-2.2c3.1-1.5,5.8-3.5,8-6.1c2.2-2.6,3.9-5.7,5.2-9.3
				C196.9,56.9,197.5,53,197.5,48.6z"/>
			<path id="XMLID_47_" d="M248.9,83.1V52.9c0-2.2-0.2-4.1-0.5-5.9c-0.4-1.8-1-3.3-1.8-4.6c-0.8-1.3-2-2.2-3.4-2.9
				c-1.4-0.7-3.2-1-5.4-1c-2.2,0-4.1,0.5-5.9,1.6c-1.8,1-3.3,2.3-4.7,3.8c-1.3,1.5-2.4,3.1-3.3,4.8c-0.8,1.7-1.4,3.3-1.6,4.6v29.8
				h-6.2V33.8h5.6l0.6,9.7c0.7-1.3,1.6-2.6,2.6-3.9c1.1-1.3,2.3-2.4,3.7-3.4c1.4-1,3-1.8,4.8-2.4c1.8-0.6,3.8-0.9,6-0.9
				c2.2,0,4.2,0.3,6.1,1c1.9,0.6,3.6,1.7,5,3.1c1.4,1.4,2.5,3.3,3.4,5.6c0.8,2.3,1.2,5,1.2,8.3v32.4H248.9z"/>
			<path id="XMLID_44_" d="M272,59.2c0,2.9,0.4,5.5,1.1,7.8c0.7,2.4,1.8,4.4,3.1,6.1c1.4,1.7,3.1,3.1,5.1,4c2,1,4.3,1.4,6.9,1.4
				c2.6,0,4.9-0.3,6.8-0.9c1.9-0.6,3.6-1.3,4.9-2c1.6-0.9,2.9-1.9,4-3l3,4.2c-1.3,1.3-2.9,2.5-4.8,3.5c-1.6,0.9-3.6,1.7-6,2.4
				c-2.4,0.7-5.2,1.1-8.5,1.1c-3.2,0-6.2-0.6-9-1.7c-2.7-1.2-5.1-2.8-7-5.1c-2-2.2-3.5-4.9-4.6-8c-1.1-3.2-1.6-6.7-1.6-10.7
				c0-4,0.6-7.6,1.7-10.8c1.1-3.2,2.7-5.9,4.7-8.1c2-2.2,4.3-3.9,7-5.1c2.7-1.2,5.6-1.7,8.8-1.7c3.1,0,5.9,0.6,8.4,1.7
				c2.5,1.1,4.6,2.7,6.4,4.8c1.8,2,3.1,4.5,4.1,7.3c1,2.8,1.4,6,1.4,9.3v3.2H272z M301.8,54.3c0-2-0.3-4-0.8-6
				c-0.5-2-1.3-3.7-2.5-5.3c-1.1-1.6-2.6-2.8-4.4-3.8c-1.8-1-4-1.4-6.6-1.4c-2.6,0-4.9,0.5-6.8,1.6c-1.9,1.1-3.5,2.4-4.7,4
				c-1.2,1.6-2.2,3.4-2.8,5.3c-0.6,1.9-1,3.8-1.2,5.6H301.8z"/>
			<path id="XMLID_41_" d="M360.9,35.1c0,3.4-0.5,6.5-1.6,9.1c-1.1,2.6-2.7,4.9-4.9,6.6c-2.2,1.8-4.6,3.1-7.3,3.9
				c-2.7,0.8-5.7,1.2-8.9,1.2h-12.5v27.1h-6.5V14.3h19c3.3,0,6.3,0.4,8.9,1.2c2.7,0.8,5.1,2.1,7.3,3.9c2.2,1.8,3.8,4,4.9,6.7
				C360.4,28.7,360.9,31.7,360.9,35.1z M354.4,35.1c0-3.1-0.5-5.6-1.5-7.6c-1-1.9-2.3-3.5-3.9-4.6c-0.8-0.6-1.6-1-2.5-1.5
				c-0.8-0.4-1.7-0.7-2.7-1c-1-0.3-2.1-0.5-3.3-0.6c-1.2-0.1-2.5-0.2-4-0.2h-10.9v30.9h10.9c1.5,0,2.8-0.1,4-0.2
				c1.2-0.1,2.3-0.3,3.3-0.6c1-0.3,1.9-0.6,2.7-1c0.8-0.4,1.6-0.9,2.5-1.5c1.6-1.1,2.8-2.7,3.9-4.6
				C353.9,40.8,354.4,38.2,354.4,35.1z"/>
			<path id="XMLID_39_" d="M372.5,83.1V14.3h6.2v68.8H372.5z"/>
			<path id="XMLID_37_" d="M426.1,83.1l-0.5-9.7c-0.7,1.3-1.6,2.6-2.6,3.9c-1.1,1.3-2.3,2.4-3.7,3.4c-1.4,1-2.9,1.8-4.7,2.4
				c-1.7,0.6-3.6,0.9-5.6,0.9c-2,0-4-0.3-5.9-0.9c-1.9-0.6-3.6-1.6-5-2.9c-1.5-1.4-2.6-3.2-3.5-5.5c-0.9-2.3-1.3-5.1-1.3-8.5V33.8
				h6.2v30.9c0,4.3,0.8,7.7,2.5,10.1c1.7,2.4,4.4,3.6,8.3,3.6c2,0,3.8-0.5,5.6-1.4c1.7-0.9,3.3-2.1,4.6-3.5c1.3-1.4,2.4-3,3.3-4.7
				c0.9-1.7,1.5-3.3,1.7-4.9V33.8h6.2v49.3H426.1z"/>
			<path id="XMLID_35_" d="M477.1,69.6c0,2-0.4,3.9-1.2,5.7c-0.8,1.7-2,3.3-3.5,4.6c-1.5,1.3-3.4,2.3-5.5,3
				c-2.2,0.7-4.6,1.1-7.3,1.1c-2.7,0-5.1-0.4-7.3-1.2c-2.1-0.8-4-1.7-5.5-2.7c-1.5-1-2.8-2-3.7-3c-0.9-1-1.5-1.7-1.8-2.1l4-3.8
				c0.5,0.7,1.3,1.4,2.2,2.3c0.9,0.9,2,1.7,3.2,2.4s2.6,1.4,4.1,1.9c1.5,0.5,3.2,0.8,4.9,0.8c3.5,0,6.3-0.7,8.3-2.2
				c2-1.5,3-3.6,3-6.2c0-1.3-0.3-2.4-0.8-3.4c-0.5-0.9-1.2-1.7-2-2.3c-0.8-0.6-1.6-1.1-2.5-1.5c-0.9-0.4-1.7-0.7-2.4-1
				c-0.7-0.3-1.5-0.6-2.4-0.9c-0.9-0.3-1.9-0.6-2.8-1c-1-0.3-1.9-0.6-2.7-0.9c-0.9-0.3-1.6-0.6-2.1-0.8c-0.6-0.2-1.4-0.6-2.4-1.2
				s-2.1-1.3-3.2-2.2c-1.1-1-2-2.2-2.8-3.6c-0.8-1.4-1.2-3.2-1.2-5.2c0-2,0.4-3.9,1.2-5.6c0.8-1.7,2-3.1,3.5-4.3
				c1.5-1.2,3.3-2.1,5.3-2.8c2.1-0.7,4.3-1,6.7-1c2.4,0,4.6,0.3,6.6,0.9c1.9,0.6,3.6,1.3,4.9,2.1c1.4,0.8,2.4,1.5,3.2,2.2
				c0.8,0.7,1.2,1.1,1.3,1.3l-3.3,4.3c-0.5-0.6-1.2-1.2-2.1-1.9c-0.8-0.7-1.8-1.3-2.9-1.9c-1.1-0.6-2.3-1-3.7-1.4
				c-1.3-0.4-2.8-0.6-4.3-0.6c-1.5,0-2.9,0.2-4.3,0.5c-1.3,0.3-2.5,0.8-3.4,1.5c-1,0.7-1.7,1.5-2.3,2.5c-0.6,1-0.8,2.1-0.8,3.4
				c0,1.3,0.3,2.5,0.8,3.4c0.5,0.9,1.2,1.7,2.1,2.3c0.8,0.6,1.7,1.1,2.6,1.5c0.9,0.4,1.8,0.7,2.6,1c1.6,0.6,3.2,1.2,4.8,1.7
				c1.6,0.5,3.1,1,4.4,1.6c0.7,0.3,1.6,0.7,2.8,1.3c1.2,0.6,2.3,1.4,3.4,2.4c1.1,1,2.1,2.2,2.9,3.7
				C476.7,65.8,477.1,67.6,477.1,69.6z"/>
		</g>
		<path id="XMLID_31_" d="M581,0l-18.5,10.7v21.4L581,42.8l18.5-10.7V10.7L581,0z M590.1,16.9h-6.8v13.6h-4.7V16.9h-6.8v-4.7h18.3
			V16.9z"/>
	</g>
</g>
</svg>
